<svg id="wave" style="transform:rotate(0deg); transition: 0.3s" viewBox="0 0 1440 490" version="1.1" xmlns="http://www.w3.org/2000/svg"><defs><linearGradient id="sw-gradient-0" x1="0" x2="0" y1="1" y2="0"><stop stop-color="rgba(16.687, 21.29, 41.302, 1)" offset="0%"></stop><stop stop-color="rgba(43.056, 47.32, 70.901, 1)" offset="100%"></stop></linearGradient></defs><path style="transform:translate(0, 0px); opacity:1" fill="url(#sw-gradient-0)" d="M0,49L80,49C160,49,320,49,480,49C640,49,800,49,960,49C1120,49,1280,49,1440,106.2C1600,163,1760,278,1920,343C2080,408,2240,425,2400,392C2560,359,2720,278,2880,253.2C3040,229,3200,261,3360,236.8C3520,212,3680,131,3840,155.2C4000,180,4160,310,4320,326.7C4480,343,4640,245,4800,212.3C4960,180,5120,212,5280,236.8C5440,261,5600,278,5760,277.7C5920,278,6080,261,6240,269.5C6400,278,6560,310,6720,302.2C6880,294,7040,245,7200,220.5C7360,196,7520,196,7680,220.5C7840,245,8000,294,8160,269.5C8320,245,8480,147,8640,138.8C8800,131,8960,212,9120,245C9280,278,9440,261,9600,285.8C9760,310,9920,376,10080,383.8C10240,392,10400,343,10560,310.3C10720,278,10880,261,11040,228.7C11200,196,11360,147,11440,122.5L11520,98L11520,490L11440,490C11360,490,11200,490,11040,490C10880,490,10720,490,10560,490C10400,490,10240,490,10080,490C9920,490,9760,490,9600,490C9440,490,9280,490,9120,490C8960,490,8800,490,8640,490C8480,490,8320,490,8160,490C8000,490,7840,490,7680,490C7520,490,7360,490,7200,490C7040,490,6880,490,6720,490C6560,490,6400,490,6240,490C6080,490,5920,490,5760,490C5600,490,5440,490,5280,490C5120,490,4960,490,4800,490C4640,490,4480,490,4320,490C4160,490,4000,490,3840,490C3680,490,3520,490,3360,490C3200,490,3040,490,2880,490C2720,490,2560,490,2400,490C2240,490,2080,490,1920,490C1760,490,1600,490,1440,490C1280,490,1120,490,960,490C800,490,640,490,480,490C320,490,160,490,80,490L0,490Z"></path><defs><linearGradient id="sw-gradient-1" x1="0" x2="0" y1="1" y2="0"><stop stop-color="rgba(234.829, 78.463, 24.61, 1)" offset="0%"></stop><stop stop-color="rgba(209.784, 83.053, 59.886, 1)" offset="100%"></stop></linearGradient></defs><path style="transform:translate(0, 50px); opacity:0.9" fill="url(#sw-gradient-1)" d="M0,98L80,130.7C160,163,320,229,480,277.7C640,327,800,359,960,326.7C1120,294,1280,196,1440,196C1600,196,1760,294,1920,343C2080,392,2240,392,2400,351.2C2560,310,2720,229,2880,179.7C3040,131,3200,114,3360,147C3520,180,3680,261,3840,310.3C4000,359,4160,376,4320,375.7C4480,376,4640,359,4800,302.2C4960,245,5120,147,5280,138.8C5440,131,5600,212,5760,220.5C5920,229,6080,163,6240,130.7C6400,98,6560,98,6720,114.3C6880,131,7040,163,7200,196C7360,229,7520,261,7680,261.3C7840,261,8000,229,8160,228.7C8320,229,8480,261,8640,285.8C8800,310,8960,327,9120,318.5C9280,310,9440,278,9600,277.7C9760,278,9920,310,10080,285.8C10240,261,10400,180,10560,171.5C10720,163,10880,229,11040,236.8C11200,245,11360,196,11440,171.5L11520,147L11520,490L11440,490C11360,490,11200,490,11040,490C10880,490,10720,490,10560,490C10400,490,10240,490,10080,490C9920,490,9760,490,9600,490C9440,490,9280,490,9120,490C8960,490,8800,490,8640,490C8480,490,8320,490,8160,490C8000,490,7840,490,7680,490C7520,490,7360,490,7200,490C7040,490,6880,490,6720,490C6560,490,6400,490,6240,490C6080,490,5920,490,5760,490C5600,490,5440,490,5280,490C5120,490,4960,490,4800,490C4640,490,4480,490,4320,490C4160,490,4000,490,3840,490C3680,490,3520,490,3360,490C3200,490,3040,490,2880,490C2720,490,2560,490,2400,490C2240,490,2080,490,1920,490C1760,490,1600,490,1440,490C1280,490,1120,490,960,490C800,490,640,490,480,490C320,490,160,490,80,490L0,490Z"></path><defs><linearGradient id="sw-gradient-2" x1="0" x2="0" y1="1" y2="0"><stop stop-color="rgba(230.276, 185.046, 151.54, 1)" offset="0%"></stop><stop stop-color="rgba(123.267, 103.181, 98.518, 1)" offset="100%"></stop></linearGradient></defs><path style="transform:translate(0, 100px); opacity:0.8" fill="url(#sw-gradient-2)" d="M0,343L80,310.3C160,278,320,212,480,155.2C640,98,800,49,960,65.3C1120,82,1280,163,1440,196C1600,229,1760,212,1920,204.2C2080,196,2240,196,2400,196C2560,196,2720,196,2880,179.7C3040,163,3200,131,3360,163.3C3520,196,3680,294,3840,351.2C4000,408,4160,425,4320,367.5C4480,310,4640,180,4800,179.7C4960,180,5120,310,5280,310.3C5440,310,5600,180,5760,122.5C5920,65,6080,82,6240,130.7C6400,180,6560,261,6720,302.2C6880,343,7040,343,7200,326.7C7360,310,7520,278,7680,228.7C7840,180,8000,114,8160,89.8C8320,65,8480,82,8640,106.2C8800,131,8960,163,9120,147C9280,131,9440,65,9600,73.5C9760,82,9920,163,10080,171.5C10240,180,10400,114,10560,147C10720,180,10880,310,11040,367.5C11200,425,11360,408,11440,400.2L11520,392L11520,490L11440,490C11360,490,11200,490,11040,490C10880,490,10720,490,10560,490C10400,490,10240,490,10080,490C9920,490,9760,490,9600,490C9440,490,9280,490,9120,490C8960,490,8800,490,8640,490C8480,490,8320,490,8160,490C8000,490,7840,490,7680,490C7520,490,7360,490,7200,490C7040,490,6880,490,6720,490C6560,490,6400,490,6240,490C6080,490,5920,490,5760,490C5600,490,5440,490,5280,490C5120,490,4960,490,4800,490C4640,490,4480,490,4320,490C4160,490,4000,490,3840,490C3680,490,3520,490,3360,490C3200,490,3040,490,2880,490C2720,490,2560,490,2400,490C2240,490,2080,490,1920,490C1760,490,1600,490,1440,490C1280,490,1120,490,960,490C800,490,640,490,480,490C320,490,160,490,80,490L0,490Z"></path></svg>