<svg data-v-99b1211c="" width="165" height="43" viewBox="0 0 165 43" fill="none" xmlns="http://www.w3.org/2000/svg" class="logo-small header__logo" role="img"><path data-v-99b1211c="" d="M71.1216 2.65052L71.343 2.57548L71.1133 2.53182C67.6043 1.86664 66.3647 3.84069 64.995 6.7054C63.827 9.53669 62.6639 12.3577 61.5077 15.1645C61.0625 16.0227 60.5916 16.7384 60.0682 17.3527C59.3368 18.2107 58.6249 18.8028 57.8915 19.1637C57.5652 19.3247 57.1917 19.4281 56.7496 19.48C56.229 19.5427 55.5061 19.3265 55.1883 18.809C55.1448 18.738 55.1097 18.6241 55.3046 18.4532C55.5006 18.2813 55.5045 18.0381 55.3161 17.731C55.1707 17.4943 54.95 17.3118 54.6601 17.1883C54.3681 17.0648 54.0754 17.0488 53.7895 17.1419C53.4617 17.2487 53.2516 17.4752 53.1651 17.8153C53.0802 18.1503 53.1443 18.4948 53.3558 18.839C53.7802 19.5304 54.4271 20.0015 55.1776 20.1659C55.5478 20.2471 55.9487 20.2877 56.3764 20.2877C56.7346 20.2877 57.1117 20.2591 57.5055 20.2021C58.1775 20.1052 58.892 19.9033 59.7542 19.5666C60.8788 19.1279 61.8671 18.5241 62.6914 17.772C63.2338 17.277 63.7313 16.6988 64.1696 16.0534C64.9163 14.9704 66.0285 12.2329 67.4752 7.91706C68.5895 4.60138 69.5777 3.17381 71.1216 2.65052Z" fill="#E10600"></path> <path data-v-99b1211c="" d="M113.849 14.2117L113.82 14.2656C112.346 17.0153 111.152 18.4095 110.272 18.4095C109.929 18.4095 109.716 18.2539 109.617 17.9336C109.552 17.7194 109.665 17.0993 110.579 15.3609C111.338 13.9159 111.616 12.9144 111.427 12.2997C111.116 11.2869 110.391 10.7736 109.272 10.7736C108.16 10.7736 106.997 11.5793 105.811 13.1699C105.882 12.7384 105.873 12.3717 105.782 12.0773C105.658 11.6717 105.438 11.3374 105.131 11.084C104.82 10.8285 104.469 10.6992 104.088 10.6992C103.514 10.6992 102.893 10.8762 102.24 11.2259C101.6 11.5762 101.055 12.0493 100.613 12.6364L100.866 12.02C101.034 11.6233 101.017 11.2709 100.813 10.9731L100.795 10.9465H98.3263L98.3509 11.026C98.4774 11.438 98.4754 11.8065 98.3454 12.1213L97.0785 15.2116C95.8796 17.2684 94.881 18.3106 94.1056 18.3106C93.6837 18.3106 93.4012 18.0588 93.2423 17.5413C93.2211 17.4721 93.2256 17.3159 93.3675 16.9672L95.2058 12.5825C95.4452 11.9886 95.5203 11.5643 95.4347 11.2856C95.4108 11.2064 95.3739 11.1078 95.3221 10.984L95.3064 10.9465H92.8292L92.8776 11.0369C93.053 11.363 93.0462 11.7597 92.8575 12.2161L91.7516 14.9256C91.201 16.2727 90.5478 17.2589 89.8106 17.8562C89.3685 18.2069 88.9848 18.3849 88.6706 18.3849C88.3421 18.3849 88.1347 18.2297 88.0365 17.9108C87.9406 17.598 87.9375 17.3217 88.0269 17.09L89.9082 12.4583C90.0876 11.9876 90.1002 11.4933 89.9457 10.9898L89.9324 10.9465H87.2932L87.3904 11.0499C87.4617 11.1259 87.519 11.2344 87.5616 11.3719C87.6428 11.6366 87.6138 11.9385 87.476 12.2694L85.8714 16.124C85.7629 16.3813 85.6828 16.6161 85.6263 16.833C84.9324 17.7962 84.2605 18.2857 83.618 18.2857C83.2223 18.2857 82.9869 18.1458 82.8992 17.8582C82.7928 17.5117 82.9323 16.9683 83.3133 16.2454C83.6961 15.5724 84.0757 14.8796 84.4438 14.1823C84.8143 13.3456 84.9053 12.6057 84.7136 11.9825C84.599 11.6083 84.3691 11.2931 84.0304 11.0454C83.692 10.7995 83.3021 10.6746 82.8723 10.6746C81.6981 10.6746 80.544 11.3558 79.4374 12.7002L82.1129 6.18755C82.3139 5.69156 82.3773 5.33885 82.3065 5.10825C82.2738 5.00216 82.1989 4.87117 82.0843 4.71903L82.0659 4.69447H79.5726L79.6294 4.78794C79.7067 4.91483 79.7602 5.02672 79.7887 5.11985C79.85 5.31906 79.8012 5.6213 79.6439 6.01733L76.2729 14.2189C76.1729 14.3884 76.0325 14.6405 75.8292 15.0212C75.3525 15.9258 74.9053 16.6316 74.5005 17.1184C73.8768 17.8419 73.2403 18.2086 72.6084 18.2086C72.025 18.2086 71.6486 17.9057 71.4574 17.2831C71.379 17.0276 71.4685 16.2274 71.7232 14.9048C71.9848 13.5421 72.0535 12.6889 71.9329 12.2963C71.7619 11.7389 71.4368 11.2129 70.9667 10.7326C70.5663 10.324 70.1001 10.0231 69.578 9.83581C71.7305 9.57759 73.4506 8.87454 74.6938 7.74374C75.9684 6.59177 76.3989 5.30474 75.9733 3.91877C75.5966 2.69176 74.697 1.7206 73.2995 1.03222C71.9099 0.347253 70.2644 0 68.4085 0C65.7833 0 63.3134 0.451975 61.0676 1.34333C58.8974 2.19817 57.252 3.34603 56.1773 4.75348C55.0317 6.20733 54.6896 7.72156 55.1601 9.25489C55.4194 10.0998 55.9058 10.7957 56.6056 11.3238C57.3056 11.8518 58.0665 12.1193 58.8669 12.1193C59.7562 12.1193 60.5389 11.905 61.1916 11.4838C61.6973 11.1764 62.1024 10.7664 62.3961 10.2646C62.6385 9.83854 62.7212 9.5677 62.6561 9.41249L62.6148 9.3139L62.5503 9.39952C61.9498 10.196 61.1033 10.6003 60.0344 10.6003C59.3525 10.6003 58.7443 10.3939 58.2266 9.98659C57.7081 9.57827 57.3411 9.03248 57.1357 8.36388C56.558 6.48227 57.4506 4.66446 59.7884 2.96091C62.0166 1.3423 64.4902 0.521571 67.1402 0.521571C68.8085 0.521571 70.2371 0.830964 71.386 1.44054C72.5279 2.04739 73.2841 2.93191 73.6334 4.06886C74.0044 5.27676 73.7487 6.43725 72.8743 7.51621C71.8223 8.76879 70.1562 9.43261 67.9228 9.4889L67.8897 9.48958L67.7503 9.71233L67.7587 9.73928C67.8092 9.90267 67.9975 9.98215 68.3347 9.98215C68.9637 9.98215 69.3652 10.2943 69.5623 10.9359C69.6749 11.3023 69.4793 12.3018 68.9809 13.906C68.4749 15.5345 68.335 16.7404 68.5649 17.4902C68.7435 18.0711 69.0976 18.547 69.6174 18.9045C70.1358 19.2616 70.7273 19.4427 71.3759 19.4427C72.4668 19.4427 73.5012 18.9863 74.4509 18.0858C74.5949 17.9445 74.7335 17.79 74.8703 17.6316L74.2665 19.1006H76.7325L78.4794 14.9113C78.8234 14.0824 79.3744 13.2995 80.1174 12.5845C80.8547 11.8743 81.5131 11.5141 82.0744 11.5141C82.2671 11.5141 82.4194 11.6915 82.5269 12.0405C82.5438 12.1141 82.4327 12.5525 81.4986 14.663C80.758 16.3369 80.4848 17.4335 80.6632 18.0155C80.7787 18.3911 81.0246 18.7107 81.3939 18.9652C81.7619 19.2193 82.1612 19.3479 82.581 19.3479C83.6198 19.3479 84.6099 18.7763 85.5433 17.6511C85.5526 17.7371 85.5665 17.8198 85.59 17.8961C85.7247 18.3362 86.0058 18.6926 86.4247 18.9556C86.8415 19.2159 87.2915 19.3479 87.7619 19.3479C88.9159 19.3479 90.03 18.5538 91.0782 16.985C91.0301 17.2442 91.0455 17.5038 91.125 17.7614C91.4483 18.8141 92.133 19.3479 93.1601 19.3479C94.1915 19.3479 95.1926 18.718 96.1528 17.4698L95.5189 19.016L95.4841 19.1006H97.99L100.2 13.6505C100.45 13.0393 100.862 12.5286 101.424 12.1333C101.987 11.7386 102.551 11.5387 103.102 11.5387C103.417 11.5387 103.628 11.7266 103.747 12.1135C103.803 12.2956 103.786 12.4843 103.698 12.6749C103.603 12.8806 103.508 13.0816 103.409 13.2828L101.041 19.1006H103.547L105.449 14.4508C105.692 13.8494 106.159 13.2057 106.838 12.5378C107.512 11.875 108.011 11.5387 108.322 11.5387C108.704 11.5387 108.935 11.6867 109.029 11.991C109.14 12.355 108.833 13.3415 108.116 14.9233C107.375 16.5555 107.087 17.5833 107.235 18.0646C107.34 18.4071 107.57 18.7097 107.92 18.9645C108.268 19.219 108.658 19.3479 109.078 19.3479C111.034 19.3479 112.73 17.689 114.119 14.4174L114.141 14.3655L113.849 14.2117Z" fill="#E10600"></path> <path data-v-99b1211c="" d="M39.4578 28.315V26.1534H39.1801L39.1426 26.1873C38.7311 26.5599 38.0001 26.5909 37.2864 26.5909H35.115V26.897L35.1777 26.9353C36.3313 27.6433 36.3178 28.5962 36.2992 29.9151C36.2969 30.0804 36.2945 30.2499 36.2945 30.4235V38.4654C36.2945 38.6356 36.2968 38.802 36.299 38.9648C36.3169 40.2562 36.3309 41.2762 35.147 41.9865L35.0832 42.0247V42.3316H40.6691V42.0247L40.6053 41.9865C39.4214 41.2762 39.4354 40.2562 39.4534 38.9648C39.4555 38.802 39.4578 38.6356 39.4578 38.4654V33.7546C39.4578 30.3868 40.3861 29.0746 42.7689 29.0746C43.1971 29.0746 43.7818 29.1601 44.1358 29.5676L44.3665 29.8332V26.2653L43.0876 26.1534C41.6362 26.1534 40.26 26.9867 39.4578 28.315Z" fill="var(--color-dark-blue)"></path> <path data-v-99b1211c="" d="M92.0137 38.9985C92.016 38.8362 92.0183 38.6695 92.0183 38.499V33.62L92.0197 33.2004C92.0274 31.6841 92.0371 29.797 91.2004 28.5351C90.0665 26.7771 87.8223 26.1534 86.2451 26.1534C84.4472 26.1534 83.0873 26.8708 81.8823 28.4688V26.1534H81.6186L81.5873 26.1724C80.9471 26.5586 80.2149 26.5909 79.5198 26.5909H77.5077V26.8978L77.5715 26.9361C78.7554 27.6461 78.7413 28.6661 78.7235 29.9574C78.7211 30.1203 78.7188 30.2869 78.7188 30.4572V38.4654C78.7188 38.6356 78.7211 38.8023 78.7235 38.9651C78.7413 40.2565 78.7554 41.2764 77.5715 41.9865L77.5077 42.0247V42.3316H83.0936V42.0247L83.0298 41.9865C81.8461 41.2764 81.8594 40.3209 81.8777 38.9982C81.88 38.8359 81.8823 38.6695 81.8823 38.499V32.5433C81.8823 30.7247 82.2515 28.637 85.1296 28.637C87.7755 28.637 88.8548 30.1783 88.8548 33.9564V38.499C88.8548 38.6654 88.8571 38.8282 88.8593 38.9879C88.8774 40.2665 88.8917 41.2762 87.7073 41.9865L87.6435 42.0247V42.3316H93.2295V42.0247L93.1657 41.9865C91.9821 41.2764 91.9953 40.3209 92.0137 38.9985Z" fill="var(--color-dark-blue)"></path> <path data-v-99b1211c="" d="M107.574 30.2859L107.285 30.2859L107.246 30.2386C106.411 29.2356 104.739 28.6371 103.202 28.6371C100.194 28.6371 98.0107 30.8883 98.0107 33.9901C98.0107 37.5789 100.804 40.2852 104.509 40.2852C106.056 40.2852 107.808 39.6643 109.081 38.6647L109.117 38.6367H109.474L107.695 42.0684L107.65 42.0866C106.492 42.5522 105.139 42.7689 103.393 42.7689C98.4225 42.7689 94.5286 39.2971 94.5286 34.865C94.5286 32.1237 95.5023 29.5963 97.3119 28.0323C101.14 24.7236 107.82 26.1534 107.574 30.2859Z" fill="var(--color-dark-blue)"></path> <path data-v-99b1211c="" d="M123.213 28.1735C121.741 26.8141 119.971 26.1534 117.8 26.1534C112.83 26.1534 109.222 29.704 109.222 34.5958C109.222 39.2553 112.746 42.7689 117.418 42.7689C122.157 42.7689 125.868 39.046 125.868 34.2931C125.868 32.01 124.876 29.7225 123.213 28.1735ZM122.386 34.9995C122.386 38.0622 120.364 40.2852 117.577 40.2852C114.412 40.2852 112.705 37.0417 112.705 33.9901C112.705 30.8883 114.7 28.637 117.45 28.637C120.841 28.637 122.386 31.9352 122.386 34.9995Z" fill="var(--color-dark-blue)"></path> <path data-v-99b1211c="" d="M141.801 39.0321C141.803 38.8696 141.806 38.7029 141.806 38.5326V26.1534H141.524L141.486 26.1916C141.042 26.6338 140.305 26.6156 139.594 26.5976C139.456 26.5943 139.32 26.5909 139.188 26.5909H137.431V26.8963L137.493 26.9348C138.678 27.6743 138.665 28.6419 138.647 29.9811C138.645 30.1464 138.642 30.3164 138.642 30.4908V35.6725C138.642 38.1904 137.202 39.9488 135.14 39.9488C132.708 39.9488 131.67 38.4887 131.67 35.0668V26.1534H131.392L131.354 26.1873C130.943 26.5599 130.181 26.5909 129.498 26.5909H127.295V26.8978L127.359 26.9361C128.543 27.6461 128.529 28.6661 128.511 29.9574C128.509 30.1203 128.506 30.2869 128.506 30.4572V35.6389C128.506 40.4367 130.363 42.7689 134.184 42.7689C136.25 42.7689 137.498 42.1344 138.642 40.4568V42.3316H143.017V42.0216L142.949 41.9841C141.769 41.3329 141.783 40.3176 141.801 39.0321Z" fill="var(--color-dark-blue)"></path> <path data-v-99b1211c="" d="M149.105 28.315V26.1534H148.827L148.79 26.1873C148.378 26.5599 147.647 26.5909 146.933 26.5909H144.762V26.897L144.825 26.9353C145.978 27.6433 145.965 28.5962 145.946 29.9151C145.944 30.0804 145.942 30.2499 145.942 30.4235V38.4654C145.942 38.6356 145.944 38.802 145.946 38.9648C145.964 40.2562 145.978 41.2762 144.794 41.9865L144.73 42.0247V42.3316H150.316V42.0247L150.252 41.9865C149.068 41.2762 149.082 40.2562 149.1 38.9648C149.103 38.802 149.105 38.6356 149.105 38.4654V33.7546C149.105 30.3868 150.033 29.0746 152.416 29.0746C152.844 29.0746 153.429 29.1601 153.783 29.5676L154.014 29.8332V26.2653L152.735 26.1534C151.283 26.1534 149.907 26.9867 149.105 28.315Z" fill="var(--color-dark-blue)"></path> <path data-v-99b1211c="" d="M164.581 39.9581C164.158 40.1263 163.759 40.2852 163.329 40.2852C161.424 40.2852 160.484 39.2699 160.372 37.097V29.0746H163.173C164.049 29.0746 164.761 28.3623 164.761 27.4869V26.0265L164.536 26.2543C164.243 26.5509 163.745 26.5909 163.297 26.5909H160.372V20.0079H160.061L160.023 20.0742C159.227 21.4654 157.384 21.949 156.427 22.015H156.296V22.3226L156.361 22.3606C157.456 23.0049 157.453 24.2239 157.45 25.6352L157.449 26.5909H155.369V29.0746H157.151V35.9417C157.151 36.0269 157.149 36.1296 157.147 36.247C157.126 37.3756 157.076 40.0187 158.592 41.5635C159.376 42.3634 160.478 42.7689 161.878 42.7689C162.49 42.7666 163.082 42.4502 163.463 41.9228L165 39.7914L164.581 39.9581Z" fill="var(--color-dark-blue)"></path> <path data-v-99b1211c="" d="M54.0521 26.1534C54.0448 26.1534 54.0376 26.1534 54.0303 26.1535C52.8993 26.1564 51.8648 26.7943 51.3034 27.7761L50.2903 29.5477C51.1568 29.0961 51.881 28.9065 52.7453 28.9065C55.6133 28.9065 57.3949 31.0735 57.3949 34.5622C57.3949 37.9572 55.282 40.1507 52.0122 40.1507H51.986C50.6141 40.1453 49.4981 38.9983 49.4981 37.5934V17.9215H49.1948L49.1569 17.9878C48.3473 19.4017 46.3535 19.9286 45.2868 19.9286H45.1553V20.235L45.2179 20.2732C46.3716 20.9812 46.3581 21.9341 46.3395 23.253C46.3371 23.4184 46.3347 23.5878 46.3347 23.7614V39.2391L46.3359 39.4967C46.3427 40.5241 46.3486 41.4113 45.4561 41.8111L45.3784 41.8458V42.1452L45.4903 42.1619C45.6866 42.1917 45.891 42.2233 46.1026 42.2561C47.5744 42.4847 49.406 42.7689 51.311 42.7689C57.1223 42.7689 60.8772 39.3097 60.8772 33.9565C60.8772 29.5081 57.943 26.1534 54.0521 26.1534Z" fill="var(--color-dark-blue)"></path> <path data-v-99b1211c="" d="M28.5355 39.7155L28.5457 39.7018L28.5355 39.705V39.7155Z" fill="var(--color-dark-blue)"></path> <path data-v-99b1211c="" d="M63.7345 30.1671L64.1779 29.9405C65.5974 29.241 66.8231 28.6371 68.3957 28.6371C69.5728 28.6371 71.3241 29.1756 71.3241 30.659C71.3241 32.1415 69.6022 32.4843 67.6085 32.8813C65.0179 33.3969 61.7939 34.0389 61.7939 37.6915C61.7939 40.6335 64.1413 42.7689 67.3922 42.7689C67.9536 42.7682 68.5 42.6151 68.976 42.338C69.4551 42.0591 69.8357 41.6379 70.1109 41.1567L70.8751 39.8202C70.1323 40.0488 69.3641 40.2853 68.6189 40.2853C65.6019 40.2853 65.2761 38.4477 65.2761 37.6578C65.2761 35.7532 66.8271 35.3788 68.327 35.0167L68.5182 34.9692C69.4725 34.7253 70.4572 34.4739 71.3241 34.0391V39.4813C71.3241 40.749 71.7864 41.6971 72.6979 42.2998C73.1676 42.6102 73.7096 42.7707 74.268 42.7707C74.5944 42.7707 74.9264 42.7159 75.2533 42.6044C75.9401 42.3699 76.5124 41.8818 76.8999 41.2681L77.2883 40.653L77.0803 40.6291C74.4876 40.3325 74.4876 39.3678 74.4876 36.7896V31.3983C74.4876 25.0837 66.1149 25.0181 63.6262 30.0284L63.7345 30.1671Z" fill="var(--color-dark-blue)"></path> <path data-v-99b1211c="" d="M21.0231 30.1671L21.4665 29.9405C22.8859 29.2411 24.1117 28.6371 25.6843 28.6371C26.8614 28.6371 28.6127 29.1756 28.6127 30.659C28.6127 32.1415 26.8908 32.4843 24.8971 32.8813C22.3064 33.3969 19.0825 34.0389 19.0825 37.6914C19.0825 40.6335 21.4299 42.7689 24.6808 42.7689C25.2422 42.7682 25.7886 42.6151 26.2646 42.338C26.7437 42.0591 27.1242 41.6379 27.3994 41.1567L28.1637 39.8202C27.4208 40.0488 26.6527 40.2853 25.9075 40.2853C22.8905 40.2853 22.5647 38.4477 22.5647 37.6578C22.5647 35.7532 24.1157 35.3788 25.6156 35.0167L25.8067 34.9692C26.7611 34.7253 27.7458 34.4739 28.6127 34.0391V39.4813C28.6127 40.749 29.0749 41.6971 29.9865 42.2998C30.4561 42.6102 30.9981 42.7707 31.5566 42.7707C31.883 42.7707 32.215 42.7159 32.5418 42.6044C33.2287 42.3699 33.801 41.8818 34.1885 41.2681L34.5769 40.653L34.3689 40.6291C31.7762 40.3325 31.7762 39.3678 31.7762 36.7896V31.3983C31.7762 25.0837 23.4035 25.0181 20.9148 30.0284L21.0231 30.1671Z" fill="var(--color-dark-blue)"></path> <path data-v-99b1211c="" d="M12.5666 28.6142C13.6694 27.926 14.4875 27.1196 14.9989 26.2159C15.4323 25.4889 15.6439 24.6782 15.6439 23.741C15.6439 20.3554 12.8761 18.3342 8.24003 18.3342H0V18.5922L0.100036 18.6456C1.45582 19.3691 1.42595 21.4738 1.40415 23.0107C1.40119 23.2022 1.39871 23.3847 1.39871 23.5563V37.4766C1.39871 37.6351 1.40036 37.8025 1.40246 37.976C1.41987 39.544 1.44366 41.6918 0.0956111 42.4246L0 42.4766V42.7353L0.170579 42.7354L6.30147 42.7367L6.35115 42.7368L6.76856 42.7372C9.27521 42.7372 11.5202 42.6505 13.6104 41.5849C16.1911 40.2907 17.8593 37.7358 17.8593 35.0766C17.8593 31.9366 15.8834 29.5286 12.5666 28.6142ZM12.5617 38.6861C11.6646 39.5404 10.3473 40.0109 8.85229 40.0109C8.60674 40.0109 8.35511 39.9979 8.10446 39.9723L5.09271 39.6816V20.9817L7.40135 20.7285C7.54844 20.7128 7.69909 20.705 7.8487 20.705C8.84959 20.705 9.82571 21.0554 10.5269 21.6664C11.2093 22.2618 11.6099 23.0698 11.6853 24.0032C11.7839 25.2192 11.2418 26.5815 10.2704 27.5585C9.71251 28.1196 9.02362 28.5265 8.35747 28.9199C7.71654 29.2985 7.05373 29.69 6.48755 30.2246C6.34575 30.3585 6.2214 30.4877 6.10751 30.6195L5.72133 31.0663L6.27581 30.8863C6.82849 30.7069 7.63673 30.5998 8.43789 30.5998C8.99341 30.5998 9.51285 30.6497 9.93986 30.7441C10.4469 30.8747 10.9177 31.0527 11.3342 31.2717C11.3665 31.2894 11.3996 31.3079 11.4327 31.3272C12.5366 31.9362 13.8487 33.1368 13.8487 35.4089C13.8487 36.7507 13.4037 37.8839 12.5617 38.6861Z" fill="var(--color-dark-blue)"></path></svg>